<svg width="1541" height="1498" viewBox="0 0 1541 1498" fill="none" xmlns="http://www.w3.org/2000/svg">
<g clip-path="url(#clip0_28_4)">
<rect width="1541" height="1498" fill="#0A020C"/>
<path d="M881 679.522C881 805.731 720.58 908.044 522.692 908.044C324.804 908.044 -22 992.976 -22 866.767C-22 740.558 324.804 451 522.692 451C720.58 451 881 553.313 881 679.522Z" fill="url(#paint0_radial_28_4)" fill-opacity="0.4"/>
<path d="M1856 922.522C1856 1048.73 1695.58 1151.04 1497.69 1151.04C1299.8 1151.04 953 1235.98 953 1109.77C953 983.558 1299.8 694 1497.69 694C1695.58 694 1856 796.313 1856 922.522Z" fill="url(#paint1_radial_28_4)" fill-opacity="0.4"/>
<path d="M1110 118.835C1110 201.586 983.867 268.67 828.274 268.67C672.681 268.67 400 324.358 400 241.606C400 158.855 672.681 -31 828.274 -31C983.867 -31 1110 36.0834 1110 118.835Z" fill="url(#paint2_radial_28_4)" fill-opacity="0.4"/>
<path d="M236 1178.92C236 1324.12 132.784 1441.84 5.46087 1441.84C-121.862 1441.84 -345 1539.55 -345 1394.35C-345 1249.14 -121.862 916 5.46087 916C132.784 916 236 1033.71 236 1178.92Z" fill="url(#paint3_radial_28_4)" fill-opacity="0.4"/>
<path d="M1717.17 373.208C1717.17 569.147 1360.81 614 1308.19 614C1082.31 614 861.616 443.242 899.206 373.208C918.753 301.6 1083.82 85.2024 1309.69 85.2024C1535.57 85.2024 1757.77 67.1037 1717.17 373.208Z" fill="url(#paint4_radial_28_4)" fill-opacity="0.4"/>
<path d="M1234.17 1424.21C1234.17 1620.15 877.814 1665 825.188 1665C599.314 1665 378.616 1494.24 416.206 1424.21C435.753 1352.6 600.817 1136.2 826.691 1136.2C1052.57 1136.2 1274.77 1118.1 1234.17 1424.21Z" fill="url(#paint5_radial_28_4)" fill-opacity="0.26"/>
<path d="M409.138 300.463C409.138 506.772 197.996 554 166.815 554C32.9838 554 -97.7801 374.204 -75.5078 300.463C-63.9262 225.065 33.8747 -2.7869 167.706 -2.7869C301.537 -2.7869 433.192 -21.8436 409.138 300.463Z" fill="url(#paint6_radial_28_4)" fill-opacity="0.4"/>
<ellipse cx="10.5433" cy="10.0016" rx="10.5433" ry="10.0016" transform="matrix(0.998749 -0.0500016 0.055582 0.998454 359.61 75.1087)" fill="url(#paint7_radial_28_4)" fill-opacity="0.5"/>
<ellipse cx="10.5433" cy="10.0016" rx="10.5433" ry="10.0016" transform="matrix(0.998749 -0.0500016 0.055582 0.998454 1165.23 594.054)" fill="url(#paint8_radial_28_4)" fill-opacity="0.5"/>
<ellipse cx="10.5433" cy="10.0016" rx="10.5433" ry="10.0016" transform="matrix(0.998749 -0.0500016 0.055582 0.998454 1223.23 321.054)" fill="url(#paint9_radial_28_4)" fill-opacity="0.5"/>
<ellipse cx="16.8693" cy="16.0025" rx="16.8693" ry="16.0025" transform="matrix(0.998749 -0.0500016 0.055582 0.998454 1244.76 298.931)" fill="url(#paint10_radial_28_4)" fill-opacity="0.5"/>
<ellipse cx="10.5433" cy="10.0016" rx="10.5433" ry="10.0016" transform="matrix(0.998749 -0.0500016 0.055582 0.998454 858.38 277.054)" fill="url(#paint11_radial_28_4)" fill-opacity="0.5"/>
<ellipse cx="14.7607" cy="14.0022" rx="14.7607" ry="14.0022" transform="matrix(0.998749 -0.0500016 0.055582 0.998454 766.278 314.549)" fill="url(#paint12_radial_28_4)" fill-opacity="0.5"/>
<ellipse cx="14.7607" cy="14.0022" rx="14.7607" ry="14.0022" transform="matrix(0.998749 -0.0500016 0.055582 0.998454 271.033 580.549)" fill="url(#paint13_radial_28_4)" fill-opacity="0.5"/>
<ellipse cx="13.1792" cy="12.5019" rx="13.1792" ry="12.5019" transform="matrix(0.998749 -0.0500016 0.055582 0.998454 524.109 773.476)" fill="url(#paint14_radial_28_4)" fill-opacity="0.5"/>
<ellipse cx="6.326" cy="6.00093" rx="6.326" ry="6.00093" transform="matrix(0.998749 -0.0500016 0.055582 0.998454 573.67 754.476)" fill="url(#paint15_radial_28_4)" fill-opacity="0.5"/>
<ellipse cx="6.37809" cy="7.81469" rx="6.37809" ry="7.81469" transform="matrix(0.998749 -0.0500016 0.055582 0.998454 997 944.967)" fill="url(#paint16_radial_28_4)" fill-opacity="0.5"/>
<ellipse cx="11.0555" cy="10.437" rx="11.0555" ry="10.437" transform="matrix(0.998749 -0.0500016 0.055582 0.998454 1017.76 917.264)" fill="url(#paint17_radial_28_4)" fill-opacity="0.5"/>
<ellipse cx="11.0555" cy="10.437" rx="11.0555" ry="10.437" transform="matrix(0.998749 -0.0500016 0.055582 0.998454 1046 1192.11)" fill="url(#paint18_radial_28_4)" fill-opacity="0.5"/>
<ellipse cx="11.0555" cy="10.437" rx="11.0555" ry="10.437" transform="matrix(0.998749 -0.0500016 0.055582 0.998454 303 1115.11)" fill="url(#paint19_radial_28_4)" fill-opacity="0.5"/>
<ellipse cx="8.16827" cy="8.34222" rx="8.16827" ry="8.34222" transform="matrix(0.998749 -0.0500016 0.055582 0.998454 299 1238)" fill="url(#paint20_radial_28_4)" fill-opacity="0.5"/>
<ellipse cx="7.72582" cy="7.51991" rx="7.72582" ry="7.51991" transform="matrix(0.998749 -0.0500016 0.055582 0.998454 1126.57 1270.77)" fill="url(#paint21_radial_28_4)" fill-opacity="0.5"/>
<ellipse cx="11.0705" cy="10.5016" rx="11.0705" ry="10.5016" transform="matrix(0.998749 -0.0500016 0.055582 0.998454 342.738 462.476)" fill="url(#paint22_radial_28_4)" fill-opacity="0.5"/>
<ellipse cx="15.4904" cy="13.2592" rx="15.4904" ry="13.2592" transform="matrix(0.998749 -0.0500016 0.055582 0.998454 879.469 702.549)" fill="url(#paint23_radial_28_4)" fill-opacity="0.5"/>
<ellipse cx="15.4904" cy="13.2592" rx="15.4904" ry="13.2592" transform="matrix(0.998749 -0.0500016 0.055582 0.998454 631 1001.55)" fill="url(#paint24_radial_28_4)" fill-opacity="0.5"/>
<ellipse cx="6.326" cy="6.00093" rx="6.326" ry="6.00093" transform="matrix(0.998749 -0.0500016 0.055582 0.998454 343.793 92.6326)" fill="url(#paint25_radial_28_4)" fill-opacity="0.5"/>
<ellipse cx="6.326" cy="6.00093" rx="6.326" ry="6.00093" transform="matrix(0.998749 -0.0500016 0.055582 0.998454 554.689 387.633)" fill="url(#paint26_radial_28_4)" fill-opacity="0.5"/>
<ellipse cx="6.326" cy="6.00093" rx="6.326" ry="6.00093" transform="matrix(0.998749 -0.0500016 0.055582 0.998454 1022.88 74.6326)" fill="url(#paint27_radial_28_4)" fill-opacity="0.5"/>
<ellipse cx="47.5" cy="199" rx="5.5" ry="5" fill="url(#paint28_radial_28_4)" fill-opacity="0.5"/>
<ellipse cx="22.5" cy="124" rx="8.5" ry="8" fill="url(#paint29_radial_28_4)" fill-opacity="0.5"/>
</g>
<rect x="0.5" y="0.5" width="1540" height="1497" stroke="black"/>
<defs>
<radialGradient id="paint0_radial_28_4" cx="0" cy="0" r="1" gradientUnits="userSpaceOnUse" gradientTransform="translate(522.692 679.522) rotate(90) scale(228.522 358.308)">
<stop stop-color="#BF0079" stop-opacity="0.26"/>
<stop offset="1" stop-color="#A83DB1" stop-opacity="0"/>
</radialGradient>
<radialGradient id="paint1_radial_28_4" cx="0" cy="0" r="1" gradientUnits="userSpaceOnUse" gradientTransform="translate(1497.69 922.522) rotate(90) scale(228.522 358.308)">
<stop stop-color="#BF0079" stop-opacity="0.5"/>
<stop offset="1" stop-color="#A83DB1" stop-opacity="0"/>
</radialGradient>
<radialGradient id="paint2_radial_28_4" cx="0" cy="0" r="1" gradientUnits="userSpaceOnUse" gradientTransform="translate(828.274 118.835) rotate(90) scale(149.835 281.726)">
<stop stop-color="#BF0079" stop-opacity="0.5"/>
<stop offset="1" stop-color="#A83DB1" stop-opacity="0"/>
</radialGradient>
<radialGradient id="paint3_radial_28_4" cx="0" cy="0" r="1" gradientUnits="userSpaceOnUse" gradientTransform="translate(5.46091 1178.92) rotate(90) scale(262.918 230.539)">
<stop stop-color="#BF0079" stop-opacity="0.5"/>
<stop offset="1" stop-color="#A83DB1" stop-opacity="0"/>
</radialGradient>
<radialGradient id="paint4_radial_28_4" cx="0" cy="0" r="1" gradientUnits="userSpaceOnUse" gradientTransform="translate(1308.19 373.208) rotate(90) scale(240.792 408.982)">
<stop stop-color="#360082" stop-opacity="0.5"/>
<stop offset="1" stop-color="#A83DB1" stop-opacity="0"/>
</radialGradient>
<radialGradient id="paint5_radial_28_4" cx="0" cy="0" r="1" gradientUnits="userSpaceOnUse" gradientTransform="translate(825.188 1424.21) rotate(90) scale(240.792 408.982)">
<stop stop-color="#510EAF" stop-opacity="0.5"/>
<stop offset="1" stop-color="#EF6AFB" stop-opacity="0"/>
</radialGradient>
<radialGradient id="paint6_radial_28_4" cx="0" cy="0" r="1" gradientUnits="userSpaceOnUse" gradientTransform="translate(166.815 300.463) rotate(90) scale(253.537 242.323)">
<stop stop-color="#360082" stop-opacity="0.5"/>
<stop offset="1" stop-color="#A83DB1" stop-opacity="0"/>
</radialGradient>
<radialGradient id="paint7_radial_28_4" cx="0" cy="0" r="1" gradientUnits="userSpaceOnUse" gradientTransform="translate(10.5433 10.0016) rotate(90) scale(10.0016 10.5433)">
<stop offset="0.19" stop-color="#BB86C4" stop-opacity="0.5"/>
<stop offset="0.94" stop-color="#CECECE" stop-opacity="0"/>
<stop offset="1" stop-color="#BB86C3" stop-opacity="0.5"/>
</radialGradient>
<radialGradient id="paint8_radial_28_4" cx="0" cy="0" r="1" gradientUnits="userSpaceOnUse" gradientTransform="translate(10.5433 10.0016) rotate(90) scale(10.0016 10.5433)">
<stop offset="0.19" stop-color="#BB86C4" stop-opacity="0.5"/>
<stop offset="0.94" stop-color="#CECECE" stop-opacity="0"/>
<stop offset="1" stop-color="#BB86C3" stop-opacity="0.5"/>
</radialGradient>
<radialGradient id="paint9_radial_28_4" cx="0" cy="0" r="1" gradientUnits="userSpaceOnUse" gradientTransform="translate(10.5433 10.0016) rotate(90) scale(10.0016 10.5433)">
<stop offset="0.19" stop-color="#BB86C4" stop-opacity="0.5"/>
<stop offset="0.94" stop-color="#CECECE" stop-opacity="0"/>
<stop offset="1" stop-color="#BB86C3" stop-opacity="0.5"/>
</radialGradient>
<radialGradient id="paint10_radial_28_4" cx="0" cy="0" r="1" gradientUnits="userSpaceOnUse" gradientTransform="translate(16.8693 16.0025) rotate(90) scale(16.0025 16.8693)">
<stop offset="0.19" stop-color="#BB86C4" stop-opacity="0.5"/>
<stop offset="0.94" stop-color="#CECECE" stop-opacity="0"/>
<stop offset="1" stop-color="#BB86C3" stop-opacity="0.5"/>
</radialGradient>
<radialGradient id="paint11_radial_28_4" cx="0" cy="0" r="1" gradientUnits="userSpaceOnUse" gradientTransform="translate(10.5433 10.0016) rotate(90) scale(10.0016 10.5433)">
<stop offset="0.19" stop-color="#BB86C4" stop-opacity="0.5"/>
<stop offset="0.94" stop-color="#CECECE" stop-opacity="0"/>
<stop offset="1" stop-color="#BB86C3" stop-opacity="0.5"/>
</radialGradient>
<radialGradient id="paint12_radial_28_4" cx="0" cy="0" r="1" gradientUnits="userSpaceOnUse" gradientTransform="translate(14.7607 14.0022) rotate(90) scale(14.0022 14.7607)">
<stop offset="0.19" stop-color="#BB86C4" stop-opacity="0.5"/>
<stop offset="0.94" stop-color="#CECECE" stop-opacity="0"/>
<stop offset="1" stop-color="#BB86C3" stop-opacity="0.5"/>
</radialGradient>
<radialGradient id="paint13_radial_28_4" cx="0" cy="0" r="1" gradientUnits="userSpaceOnUse" gradientTransform="translate(14.7607 14.0022) rotate(90) scale(14.0022 14.7607)">
<stop offset="0.19" stop-color="#BB86C4" stop-opacity="0.5"/>
<stop offset="0.94" stop-color="#CECECE" stop-opacity="0"/>
<stop offset="1" stop-color="#BB86C3" stop-opacity="0.5"/>
</radialGradient>
<radialGradient id="paint14_radial_28_4" cx="0" cy="0" r="1" gradientUnits="userSpaceOnUse" gradientTransform="translate(13.1792 12.5019) rotate(90) scale(12.5019 13.1792)">
<stop offset="0.19" stop-color="#BB86C4" stop-opacity="0.5"/>
<stop offset="0.94" stop-color="#CECECE" stop-opacity="0"/>
<stop offset="1" stop-color="#BB86C3" stop-opacity="0.5"/>
</radialGradient>
<radialGradient id="paint15_radial_28_4" cx="0" cy="0" r="1" gradientUnits="userSpaceOnUse" gradientTransform="translate(6.326 6.00093) rotate(90) scale(6.00093 6.326)">
<stop offset="0.19" stop-color="#BB86C4" stop-opacity="0.5"/>
<stop offset="0.94" stop-color="#CECECE" stop-opacity="0"/>
<stop offset="1" stop-color="#BB86C3" stop-opacity="0.5"/>
</radialGradient>
<radialGradient id="paint16_radial_28_4" cx="0" cy="0" r="1" gradientUnits="userSpaceOnUse" gradientTransform="translate(6.37809 7.81469) rotate(90) scale(7.81469 6.37809)">
<stop offset="0.19" stop-color="#BB86C4" stop-opacity="0.5"/>
<stop offset="0.94" stop-color="#CECECE" stop-opacity="0"/>
<stop offset="1" stop-color="#BB86C3" stop-opacity="0.5"/>
</radialGradient>
<radialGradient id="paint17_radial_28_4" cx="0" cy="0" r="1" gradientUnits="userSpaceOnUse" gradientTransform="translate(11.0555 10.437) rotate(90) scale(10.437 11.0555)">
<stop offset="0.19" stop-color="#BB86C4" stop-opacity="0.5"/>
<stop offset="0.94" stop-color="#CECECE" stop-opacity="0"/>
<stop offset="1" stop-color="#BB86C3" stop-opacity="0.5"/>
</radialGradient>
<radialGradient id="paint18_radial_28_4" cx="0" cy="0" r="1" gradientUnits="userSpaceOnUse" gradientTransform="translate(11.0555 10.437) rotate(90) scale(10.437 11.0555)">
<stop offset="0.19" stop-color="#BB86C4" stop-opacity="0.5"/>
<stop offset="0.94" stop-color="#CECECE" stop-opacity="0"/>
<stop offset="1" stop-color="#BB86C3" stop-opacity="0.5"/>
</radialGradient>
<radialGradient id="paint19_radial_28_4" cx="0" cy="0" r="1" gradientUnits="userSpaceOnUse" gradientTransform="translate(11.0555 10.437) rotate(90) scale(10.437 11.0555)">
<stop offset="0.19" stop-color="#BB86C4" stop-opacity="0.5"/>
<stop offset="0.94" stop-color="#CECECE" stop-opacity="0"/>
<stop offset="1" stop-color="#BB86C3" stop-opacity="0.5"/>
</radialGradient>
<radialGradient id="paint20_radial_28_4" cx="0" cy="0" r="1" gradientUnits="userSpaceOnUse" gradientTransform="translate(8.16827 8.34222) rotate(90) scale(8.34222 8.16827)">
<stop offset="0.19" stop-color="#BB86C4" stop-opacity="0.5"/>
<stop offset="0.94" stop-color="#CECECE" stop-opacity="0"/>
<stop offset="1" stop-color="#BB86C3" stop-opacity="0.5"/>
</radialGradient>
<radialGradient id="paint21_radial_28_4" cx="0" cy="0" r="1" gradientUnits="userSpaceOnUse" gradientTransform="translate(7.72582 7.51991) rotate(90) scale(7.51991 7.72582)">
<stop offset="0.19" stop-color="#BB86C4" stop-opacity="0.5"/>
<stop offset="0.94" stop-color="#CECECE" stop-opacity="0"/>
<stop offset="1" stop-color="#BB86C3" stop-opacity="0.5"/>
</radialGradient>
<radialGradient id="paint22_radial_28_4" cx="0" cy="0" r="1" gradientUnits="userSpaceOnUse" gradientTransform="translate(11.0705 10.5016) rotate(90) scale(10.5016 11.0705)">
<stop offset="0.19" stop-color="#BB86C4" stop-opacity="0.5"/>
<stop offset="0.94" stop-color="#CECECE" stop-opacity="0"/>
<stop offset="1" stop-color="#BB86C3" stop-opacity="0.5"/>
</radialGradient>
<radialGradient id="paint23_radial_28_4" cx="0" cy="0" r="1" gradientUnits="userSpaceOnUse" gradientTransform="translate(15.4904 13.2592) rotate(90) scale(13.2592 15.4904)">
<stop offset="0.19" stop-color="#BB86C4" stop-opacity="0.5"/>
<stop offset="0.94" stop-color="#CECECE" stop-opacity="0"/>
<stop offset="1" stop-color="#BB86C3" stop-opacity="0.5"/>
</radialGradient>
<radialGradient id="paint24_radial_28_4" cx="0" cy="0" r="1" gradientUnits="userSpaceOnUse" gradientTransform="translate(15.4904 13.2592) rotate(90) scale(13.2592 15.4904)">
<stop offset="0.19" stop-color="#BB86C4" stop-opacity="0.5"/>
<stop offset="0.94" stop-color="#CECECE" stop-opacity="0"/>
<stop offset="1" stop-color="#BB86C3" stop-opacity="0.5"/>
</radialGradient>
<radialGradient id="paint25_radial_28_4" cx="0" cy="0" r="1" gradientUnits="userSpaceOnUse" gradientTransform="translate(6.326 6.00093) rotate(90) scale(6.00093 6.326)">
<stop offset="0.19" stop-color="#BB86C4" stop-opacity="0.5"/>
<stop offset="0.94" stop-color="#CECECE" stop-opacity="0"/>
<stop offset="1" stop-color="#BB86C3" stop-opacity="0.5"/>
</radialGradient>
<radialGradient id="paint26_radial_28_4" cx="0" cy="0" r="1" gradientUnits="userSpaceOnUse" gradientTransform="translate(6.326 6.00093) rotate(90) scale(6.00093 6.326)">
<stop offset="0.19" stop-color="#BB86C4" stop-opacity="0.5"/>
<stop offset="0.94" stop-color="#CECECE" stop-opacity="0"/>
<stop offset="1" stop-color="#BB86C3" stop-opacity="0.5"/>
</radialGradient>
<radialGradient id="paint27_radial_28_4" cx="0" cy="0" r="1" gradientUnits="userSpaceOnUse" gradientTransform="translate(6.326 6.00093) rotate(90) scale(6.00093 6.326)">
<stop offset="0.19" stop-color="#BB86C4" stop-opacity="0.5"/>
<stop offset="0.94" stop-color="#CECECE" stop-opacity="0"/>
<stop offset="1" stop-color="#BB86C3" stop-opacity="0.5"/>
</radialGradient>
<radialGradient id="paint28_radial_28_4" cx="0" cy="0" r="1" gradientUnits="userSpaceOnUse" gradientTransform="translate(47.5 199) rotate(90) scale(5 5.5)">
<stop offset="0.19" stop-color="#BB86C4" stop-opacity="0.5"/>
<stop offset="0.94" stop-color="#CECECE" stop-opacity="0"/>
<stop offset="1" stop-color="#BB86C3" stop-opacity="0.5"/>
</radialGradient>
<radialGradient id="paint29_radial_28_4" cx="0" cy="0" r="1" gradientUnits="userSpaceOnUse" gradientTransform="translate(22.5 124) rotate(90) scale(8 8.5)">
<stop offset="0.19" stop-color="#BB86C4" stop-opacity="0.5"/>
<stop offset="0.94" stop-color="#CECECE" stop-opacity="0"/>
<stop offset="1" stop-color="#BB86C3" stop-opacity="0.5"/>
</radialGradient>
<clipPath id="clip0_28_4">
<rect width="1541" height="1498" fill="white"/>
</clipPath>
</defs>
</svg>
